<svg xmlns="http://www.w3.org/2000/svg" width="30" height="30"><path fill="white" fill-rule="evenodd" d="M2.31.619a4.618 4.618 0 113.432 8.48 7.46 7.46 0 007.403 6.533h4.743a4.619 4.619 0 110 2.131h-4.743a9.592 9.592 0 01-7.46-3.562v6.404c0 .042-.003.084-.008.125a4.618 4.618 0 11-2.117-.001 1.098 1.098 0 01-.007-.124V9.237c0-.042.002-.084.007-.125A4.618 4.618 0 012.31.62zm2.308 22.118a2.487 2.487 0 100 4.974 2.487 2.487 0 000-4.974zm17.764-8.526a2.487 2.487 0 100 4.973 2.487 2.487 0 000-4.973zM4.618 2.13a2.487 2.487 0 100 4.974 2.487 2.487 0 000-4.973z"></path></svg>