<svg xmlns="http://www.w3.org/2000/svg" width="28" height="28"><g fill="white" fill-rule="evenodd"><path fill-rule="nonzero" d="M7.816 6.252c0 .354.038.642.104.852.075.21.17.44.301.69a.421.421 0 01.066.22c0 .096-.056.191-.179.287l-.594.402a.447.447 0 01-.245.086c-.094 0-.189-.048-.283-.134a2.958 2.958 0 01-.34-.45 7.453 7.453 0 01-.291-.565c-.736.881-1.66 1.322-2.772 1.322-.792 0-1.423-.23-1.885-.69C1.236 7.812 1 7.2 1 6.434c0-.814.283-1.474.858-1.972s1.339-.747 2.31-.747c.32 0 .65.029.999.076.349.048.707.125 1.084.211v-.699c0-.727-.15-1.235-.443-1.532-.302-.297-.81-.44-1.537-.44-.33 0-.67.038-1.018.124a7.428 7.428 0 00-1.018.326c-.15.067-.264.105-.33.124a.57.57 0 01-.15.029c-.133 0-.199-.096-.199-.297v-.469c0-.153.02-.268.066-.335a.707.707 0 01.264-.201c.33-.172.726-.316 1.188-.43a5.632 5.632 0 011.47-.183c1.122 0 1.943.259 2.47.776.519.517.783 1.302.783 2.355v3.102h.019zM3.988 7.707c.311 0 .632-.057.971-.172a2.1 2.1 0 00.896-.613c.15-.182.264-.383.32-.612.057-.23.095-.508.095-.833v-.403a7.764 7.764 0 00-.868-.162 6.996 6.996 0 00-.886-.058c-.631 0-1.093.125-1.404.383-.311.259-.462.623-.462 1.101 0 .45.113.785.349 1.015.226.24.556.354.99.354zm7.57 1.034c-.17 0-.282-.028-.358-.095-.075-.058-.141-.192-.198-.374L8.787.872a1.7 1.7 0 01-.085-.384c0-.153.075-.24.226-.24h.924c.18 0 .302.03.368.097.075.057.132.191.188.373l1.584 6.338 1.47-6.338c.048-.191.104-.316.18-.373.075-.058.207-.096.377-.096h.754c.18 0 .302.029.377.096.076.057.142.191.18.373l1.489 6.415 1.63-6.415c.057-.191.123-.316.19-.373.075-.058.197-.096.367-.096h.877c.15 0 .235.077.235.24 0 .047-.01.095-.019.152-.01.058-.028.135-.066.24l-2.272 7.4c-.056.192-.122.317-.198.374a.596.596 0 01-.358.096h-.81c-.18 0-.302-.029-.378-.096-.075-.067-.141-.191-.179-.383l-1.46-6.175-1.453 6.166c-.047.191-.103.316-.179.383-.075.067-.207.095-.377.095h-.81zM23.672 9c-.49 0-.98-.057-1.452-.172-.47-.115-.839-.24-1.084-.383-.15-.086-.254-.182-.292-.268a.685.685 0 01-.056-.268V7.42c0-.2.075-.297.216-.297.057 0 .113.01.17.03.057.018.141.057.236.095.32.143.669.258 1.037.335.377.077.744.115 1.122.115.593 0 1.055-.105 1.376-.316.32-.21.49-.517.49-.91a.94.94 0 00-.254-.67c-.17-.182-.49-.345-.953-.498l-1.367-.43c-.688-.22-1.197-.546-1.508-.977a2.304 2.304 0 01-.471-1.388c0-.403.085-.757.254-1.063a2.45 2.45 0 01.68-.785c.282-.22.602-.383.98-.498A4.05 4.05 0 0123.983 0c.208 0 .425.01.632.038.217.029.415.067.613.106.188.047.367.095.537.153.17.057.302.115.396.172a.819.819 0 01.283.24.522.522 0 01.085.315v.45c0 .202-.076.307-.217.307-.076 0-.198-.038-.358-.115-.538-.249-1.141-.373-1.81-.373-.538 0-.962.086-1.254.268-.292.182-.443.46-.443.852 0 .268.094.498.283.68.188.181.537.363 1.036.526l1.34.431c.678.22 1.168.527 1.46.92.293.392.434.842.434 1.34 0 .411-.085.785-.245 1.11-.17.326-.396.613-.688.843-.293.24-.641.411-1.047.536A4.419 4.419 0 0123.672 9z"></path><path d="M25.314 13.703C22.251 15.857 17.8 17 13.972 17 8.608 17 3.775 15.112.124 11.975c-.289-.248-.028-.584.317-.39 3.948 2.18 8.819 3.5 13.857 3.5 3.399 0 7.133-.673 10.57-2.055.512-.222.95.319.446.673z"></path><path d="M26.59 12.321c-.39-.478-2.589-.23-3.585-.115-.298.035-.345-.213-.075-.399 1.751-1.17 4.629-.833 4.964-.443.335.399-.093 3.137-1.732 4.449-.252.203-.494.097-.382-.169.372-.877 1.201-2.853.81-3.323z"></path></g></svg>