<svg xmlns="http://www.w3.org/2000/svg" width="188" height="37" fill="currentColor" class="flex-shrink-0 mt-8 mx-auto sm:mx-0 sm:mt-1 transform translate-x-[0px] translate-y-[0px]"><path d="M0 0h13.95c8.383 0 13.587 4.842 13.587 10.984 0 5.432-2.376 8.316-6.053 10.131l-.271.131 7.625 15.393V37h-8.962l-6.469-13.586H8.384V37H0V0h13.95H0zm61.073 0v6.938H44.738v8.093h13.805v6.938H44.738v8.093h16.335V37H36.354V0h24.719zm6.938 0h14.31C90.995 0 95.91 5.203 95.91 12.285c0 6.899-4.76 11.487-13.177 11.631l-.41.004h-5.927V37H68.01V0h14.31-14.31zm41.92 0v30.063h14.96V37h-23.344V0h8.384zm53.423 0l7.806 15.754L178.966 0H188l-12.648 23.197V37h-8.384V23.197L154.32 0h9.034zM149.94 0v37l-31.141-18.5L149.938 0zm-6.92 12.175L132.371 18.5l10.646 6.325v-12.65zM82.62 6.937h-6.226v10.118h5.926c3.759-.073 5.204-2.313 5.204-5.131 0-2.602-1.368-4.93-4.904-4.987zm-68.672 0H8.384v9.612h5.565c3.542 0 5.276-1.735 5.276-4.77 0-3.016-1.702-4.738-4.974-4.837l-.302-.005z"></path></svg>